<svg width="1223px" height="326px"
 viewBox="0.00 0.00 880.44 235.00" xmlns="http://www.w3.org/2000/svg" xmlns:xlink="http://www.w3.org/1999/xlink">
<g id="graph0" class="graph" transform="scale(0.9999928000575995 0.9999928000575995) rotate(0.0) translate(4.0 231.0)">
<polygon fill="white" stroke="transparent" points="-4,4 -4,-231 876.44,-231 876.44,4 -4,4"/>
<text text-anchor="middle" x="436.22" y="-195" font-family="Times,serif" font-size="35.00">Emoji</text>
<!-- :app -->
<g id="node1" class="node">
<title>:app</title>
<ellipse fill="#66bb6a" stroke="black" cx="422.8" cy="-162" rx="27" ry="18"/>
<text text-anchor="middle" x="422.8" y="-158.3" font-family="Times,serif" font-size="14.00">:app</text>
</g>
<!-- :emoji&#45;ios -->
<g id="node2" class="node">
<title>:emoji&#45;ios</title>
<ellipse fill="#ab47bc" stroke="black" cx="46.8" cy="-90" rx="46.59" ry="18"/>
<text text-anchor="middle" x="46.8" y="-86.3" font-family="Times,serif" font-size="14.00">:emoji&#45;ios</text>
</g>
<!-- :app&#45;&gt;:emoji&#45;ios -->
<g id="edge1" class="edge">
<title>:app&#45;&gt;:emoji&#45;ios</title>
<path fill="none" stroke="black" stroke-dasharray="1,5" d="M396.43,-157.82C341.42,-150.92 210.55,-133.17 102.8,-108 98.95,-107.1 94.99,-106.09 91.03,-105.01"/>
<polygon fill="black" stroke="black" points="91.83,-101.6 81.26,-102.23 89.92,-108.33 91.83,-101.6"/>
</g>
<!-- :emoji&#45;google -->
<g id="node4" class="node">
<title>:emoji&#45;google</title>
<ellipse fill="#ab47bc" stroke="black" cx="171.8" cy="-90" rx="60.39" ry="18"/>
<text text-anchor="middle" x="171.8" y="-86.3" font-family="Times,serif" font-size="14.00">:emoji&#45;google</text>
</g>
<!-- :app&#45;&gt;:emoji&#45;google -->
<g id="edge2" class="edge">
<title>:app&#45;&gt;:emoji&#45;google</title>
<path fill="none" stroke="black" stroke-dasharray="1,5" d="M398.27,-154.16C358.09,-142.96 277.37,-120.44 223.96,-105.55"/>
<polygon fill="black" stroke="black" points="224.89,-102.17 214.32,-102.86 223.01,-108.92 224.89,-102.17"/>
</g>
<!-- :emoji&#45;google&#45;compat -->
<g id="node5" class="node">
<title>:emoji&#45;google&#45;compat</title>
<ellipse fill="#ab47bc" stroke="black" cx="339.8" cy="-90" rx="89.88" ry="18"/>
<text text-anchor="middle" x="339.8" y="-86.3" font-family="Times,serif" font-size="14.00">:emoji&#45;google&#45;compat</text>
</g>
<!-- :app&#45;&gt;:emoji&#45;google&#45;compat -->
<g id="edge3" class="edge">
<title>:app&#45;&gt;:emoji&#45;google&#45;compat</title>
<path fill="none" stroke="black" stroke-dasharray="1,5" d="M406.4,-147.17C395.29,-137.8 380.33,-125.19 367.41,-114.29"/>
<polygon fill="black" stroke="black" points="369.57,-111.54 359.67,-107.76 365.06,-116.89 369.57,-111.54"/>
</g>
<!-- :emoji&#45;twitter -->
<g id="node6" class="node">
<title>:emoji&#45;twitter</title>
<ellipse fill="#ab47bc" stroke="black" cx="506.8" cy="-90" rx="59.59" ry="18"/>
<text text-anchor="middle" x="506.8" y="-86.3" font-family="Times,serif" font-size="14.00">:emoji&#45;twitter</text>
</g>
<!-- :app&#45;&gt;:emoji&#45;twitter -->
<g id="edge4" class="edge">
<title>:app&#45;&gt;:emoji&#45;twitter</title>
<path fill="none" stroke="black" stroke-dasharray="1,5" d="M438.99,-147.5C450.44,-137.96 466.07,-124.94 479.43,-113.8"/>
<polygon fill="black" stroke="black" points="481.96,-116.25 487.41,-107.16 477.48,-110.87 481.96,-116.25"/>
</g>
<!-- :emoji&#45;facebook -->
<g id="node7" class="node">
<title>:emoji&#45;facebook</title>
<ellipse fill="#ab47bc" stroke="black" cx="653.8" cy="-90" rx="68.79" ry="18"/>
<text text-anchor="middle" x="653.8" y="-86.3" font-family="Times,serif" font-size="14.00">:emoji&#45;facebook</text>
</g>
<!-- :app&#45;&gt;:emoji&#45;facebook -->
<g id="edge5" class="edge">
<title>:app&#45;&gt;:emoji&#45;facebook</title>
<path fill="none" stroke="black" stroke-dasharray="1,5" d="M447.08,-153.64C483.38,-142.64 552.7,-121.64 601.01,-107"/>
<polygon fill="black" stroke="black" points="602.12,-110.32 610.68,-104.07 600.09,-103.62 602.12,-110.32"/>
</g>
<!-- :emoji&#45;material -->
<g id="node8" class="node">
<title>:emoji&#45;material</title>
<ellipse fill="#ab47bc" stroke="black" cx="806.8" cy="-90" rx="65.79" ry="18"/>
<text text-anchor="middle" x="806.8" y="-86.3" font-family="Times,serif" font-size="14.00">:emoji&#45;material</text>
</g>
<!-- :app&#45;&gt;:emoji&#45;material -->
<g id="edge6" class="edge">
<title>:app&#45;&gt;:emoji&#45;material</title>
<path fill="none" stroke="black" stroke-dasharray="1,5" d="M448.93,-157C502.26,-148.72 627.43,-128.76 731.8,-108 737.2,-106.93 742.81,-105.76 748.41,-104.55"/>
<polygon fill="black" stroke="black" points="749.44,-107.91 758.46,-102.35 747.95,-101.07 749.44,-107.91"/>
</g>
<!-- :emoji -->
<g id="node3" class="node">
<title>:emoji</title>
<ellipse fill="#ab47bc" stroke="black" cx="422.8" cy="-18" rx="33.6" ry="18"/>
<text text-anchor="middle" x="422.8" y="-14.3" font-family="Times,serif" font-size="14.00">:emoji</text>
</g>
<!-- :emoji&#45;ios&#45;&gt;:emoji -->
<g id="edge7" class="edge">
<title>:emoji&#45;ios&#45;&gt;:emoji</title>
<path fill="none" stroke="black" d="M81.26,-77.77C88.34,-75.68 95.77,-73.64 102.8,-72 201.03,-49.06 318.47,-32.27 380.14,-24.26"/>
<polygon fill="black" stroke="black" points="380.8,-27.7 390.27,-22.96 379.91,-20.76 380.8,-27.7"/>
</g>
<!-- :emoji&#45;google&#45;&gt;:emoji -->
<g id="edge8" class="edge">
<title>:emoji&#45;google&#45;&gt;:emoji</title>
<path fill="none" stroke="black" d="M214.37,-77.13C261.71,-63.93 337.52,-42.78 383.49,-29.96"/>
<polygon fill="black" stroke="black" points="384.69,-33.26 393.38,-27.2 382.81,-26.52 384.69,-33.26"/>
</g>
<!-- :emoji&#45;google&#45;compat&#45;&gt;:emoji -->
<g id="edge9" class="edge">
<title>:emoji&#45;google&#45;compat&#45;&gt;:emoji</title>
<path fill="none" stroke="black" d="M359.47,-72.41C370.95,-62.73 385.55,-50.41 397.84,-40.05"/>
<polygon fill="black" stroke="black" points="400.13,-42.69 405.52,-33.57 395.62,-37.34 400.13,-42.69"/>
</g>
<!-- :emoji&#45;twitter&#45;&gt;:emoji -->
<g id="edge10" class="edge">
<title>:emoji&#45;twitter&#45;&gt;:emoji</title>
<path fill="none" stroke="black" d="M487.31,-72.76C475.62,-63.02 460.63,-50.53 448.04,-40.04"/>
<polygon fill="black" stroke="black" points="450.1,-37.2 440.18,-33.48 445.62,-42.57 450.1,-37.2"/>
</g>
<!-- :emoji&#45;facebook&#45;&gt;:emoji -->
<g id="edge11" class="edge">
<title>:emoji&#45;facebook&#45;&gt;:emoji</title>
<path fill="none" stroke="black" d="M610.62,-75.92C567.67,-62.9 502.4,-43.12 461.21,-30.64"/>
<polygon fill="black" stroke="black" points="462.12,-27.26 451.53,-27.71 460.09,-33.96 462.12,-27.26"/>
</g>
<!-- :emoji&#45;material&#45;&gt;:emoji -->
<g id="edge12" class="edge">
<title>:emoji&#45;material&#45;&gt;:emoji</title>
<path fill="none" stroke="black" d="M758.46,-77.65C749.61,-75.68 740.44,-73.72 731.8,-72 636.87,-53.11 524.73,-34.89 465.09,-25.53"/>
<polygon fill="black" stroke="black" points="465.35,-22.02 454.93,-23.94 464.27,-28.94 465.35,-22.02"/>
</g>
<!-- :jvm -->
<g id="node9" class="node">
<title>:jvm</title>
<polygon fill="#ff7043" stroke="black" points="73.8,-180 19.8,-180 19.8,-144 73.8,-144 73.8,-180"/>
<text text-anchor="middle" x="46.8" y="-158.3" font-family="Times,serif" font-size="14.00">:jvm</text>
</g>
<!-- :jvm&#45;&gt;:emoji&#45;ios -->
<g id="edge13" class="edge">
<title>:jvm&#45;&gt;:emoji&#45;ios</title>
<path fill="none" stroke="black" stroke-dasharray="1,5" d="M46.8,-143.7C46.8,-135.98 46.8,-126.71 46.8,-118.11"/>
<polygon fill="black" stroke="black" points="50.3,-118.1 46.8,-108.1 43.3,-118.1 50.3,-118.1"/>
</g>
</g>
</svg>
