<svg width="1373px" height="326px"
 viewBox="0.00 0.00 988.44 235.00" xmlns="http://www.w3.org/2000/svg" xmlns:xlink="http://www.w3.org/1999/xlink">
<g id="graph0" class="graph" transform="scale(0.9999928000575995 0.9999928000575995) rotate(0.0) translate(4.0 231.0)">
<polygon fill="white" stroke="transparent" points="-4,4 -4,-231 984.44,-231 984.44,4 -4,4"/>
<text text-anchor="middle" x="490.22" y="-195" font-family="Times,serif" font-size="35.00">Emoji</text>
<!-- :app -->
<g id="node1" class="node">
<title>:app</title>
<ellipse fill="#66bb6a" stroke="black" cx="467.8" cy="-162" rx="27" ry="18"/>
<text text-anchor="middle" x="467.8" y="-158.3" font-family="Times,serif" font-size="14.00">:app</text>
</g>
<!-- :app&#45;&gt;:app -->
<g id="edge1" class="edge">
<title>:app&#45;&gt;:app</title>
<path fill="none" stroke="black" d="M487.69,-174.43C500.48,-177.68 512.8,-173.53 512.8,-162 512.8,-153.62 506.3,-149.14 497.84,-148.56"/>
<polygon fill="black" stroke="black" points="497.3,-145.1 487.69,-149.57 497.99,-152.07 497.3,-145.1"/>
</g>
<!-- :emoji&#45;ios -->
<g id="node2" class="node">
<title>:emoji&#45;ios</title>
<ellipse fill="#ab47bc" stroke="black" cx="46.8" cy="-90" rx="46.59" ry="18"/>
<text text-anchor="middle" x="46.8" y="-86.3" font-family="Times,serif" font-size="14.00">:emoji&#45;ios</text>
</g>
<!-- :app&#45;&gt;:emoji&#45;ios -->
<g id="edge2" class="edge">
<title>:app&#45;&gt;:emoji&#45;ios</title>
<path fill="none" stroke="black" stroke-dasharray="1,5" d="M441.56,-157.67C383.52,-150.16 239.92,-130.75 120.8,-108 112.42,-106.4 103.55,-104.52 94.98,-102.61"/>
<polygon fill="black" stroke="black" points="95.62,-99.17 85.09,-100.37 94.07,-105.99 95.62,-99.17"/>
</g>
<!-- :emoji&#45;google -->
<g id="node4" class="node">
<title>:emoji&#45;google</title>
<ellipse fill="#ab47bc" stroke="black" cx="189.8" cy="-90" rx="60.39" ry="18"/>
<text text-anchor="middle" x="189.8" y="-86.3" font-family="Times,serif" font-size="14.00">:emoji&#45;google</text>
</g>
<!-- :app&#45;&gt;:emoji&#45;google -->
<g id="edge3" class="edge">
<title>:app&#45;&gt;:emoji&#45;google</title>
<path fill="none" stroke="black" stroke-dasharray="1,5" d="M442.63,-154.66C398.1,-143.45 304.44,-119.87 244.46,-104.76"/>
<polygon fill="black" stroke="black" points="244.95,-101.28 234.4,-102.23 243.25,-108.07 244.95,-101.28"/>
</g>
<!-- :emoji&#45;google&#45;compat -->
<g id="node5" class="node">
<title>:emoji&#45;google&#45;compat</title>
<ellipse fill="#ab47bc" stroke="black" cx="375.8" cy="-90" rx="89.88" ry="18"/>
<text text-anchor="middle" x="375.8" y="-86.3" font-family="Times,serif" font-size="14.00">:emoji&#45;google&#45;compat</text>
</g>
<!-- :app&#45;&gt;:emoji&#45;google&#45;compat -->
<g id="edge4" class="edge">
<title>:app&#45;&gt;:emoji&#45;google&#45;compat</title>
<path fill="none" stroke="black" stroke-dasharray="1,5" d="M450.49,-147.83C437.96,-138.3 420.7,-125.16 405.93,-113.92"/>
<polygon fill="black" stroke="black" points="407.65,-110.84 397.57,-107.57 403.41,-116.41 407.65,-110.84"/>
</g>
<!-- :emoji&#45;twitter -->
<g id="node6" class="node">
<title>:emoji&#45;twitter</title>
<ellipse fill="#ab47bc" stroke="black" cx="560.8" cy="-90" rx="59.59" ry="18"/>
<text text-anchor="middle" x="560.8" y="-86.3" font-family="Times,serif" font-size="14.00">:emoji&#45;twitter</text>
</g>
<!-- :app&#45;&gt;:emoji&#45;twitter -->
<g id="edge5" class="edge">
<title>:app&#45;&gt;:emoji&#45;twitter</title>
<path fill="none" stroke="black" stroke-dasharray="1,5" d="M485.29,-147.83C498.25,-138.08 516.22,-124.55 531.38,-113.14"/>
<polygon fill="black" stroke="black" points="533.58,-115.87 539.46,-107.06 529.37,-110.27 533.58,-115.87"/>
</g>
<!-- :emoji&#45;facebook -->
<g id="node7" class="node">
<title>:emoji&#45;facebook</title>
<ellipse fill="#ab47bc" stroke="black" cx="725.8" cy="-90" rx="68.79" ry="18"/>
<text text-anchor="middle" x="725.8" y="-86.3" font-family="Times,serif" font-size="14.00">:emoji&#45;facebook</text>
</g>
<!-- :app&#45;&gt;:emoji&#45;facebook -->
<g id="edge6" class="edge">
<title>:app&#45;&gt;:emoji&#45;facebook</title>
<path fill="none" stroke="black" stroke-dasharray="1,5" d="M492.53,-154.29C533.02,-143.3 614.44,-121.21 669.54,-106.26"/>
<polygon fill="black" stroke="black" points="670.78,-109.55 679.51,-103.56 668.94,-102.8 670.78,-109.55"/>
</g>
<!-- :emoji&#45;material -->
<g id="node8" class="node">
<title>:emoji&#45;material</title>
<ellipse fill="#ab47bc" stroke="black" cx="896.8" cy="-90" rx="65.79" ry="18"/>
<text text-anchor="middle" x="896.8" y="-86.3" font-family="Times,serif" font-size="14.00">:emoji&#45;material</text>
</g>
<!-- :app&#45;&gt;:emoji&#45;material -->
<g id="edge7" class="edge">
<title>:app&#45;&gt;:emoji&#45;material</title>
<path fill="none" stroke="black" stroke-dasharray="1,5" d="M494.11,-157.74C553.03,-150.29 699.95,-130.9 821.8,-108 827.43,-106.94 833.28,-105.76 839.12,-104.53"/>
<polygon fill="black" stroke="black" points="839.86,-107.95 848.89,-102.41 838.38,-101.11 839.86,-107.95"/>
</g>
<!-- :emoji&#45;ios&#45;&gt;:emoji&#45;ios -->
<g id="edge9" class="edge">
<title>:emoji&#45;ios&#45;&gt;:emoji&#45;ios</title>
<path fill="none" stroke="black" d="M79.47,-103.03C96.36,-105.03 111.59,-100.69 111.59,-90 111.59,-81.57 102.11,-77.08 89.81,-76.55"/>
<polygon fill="black" stroke="black" points="89.32,-73.07 79.47,-76.97 89.6,-80.06 89.32,-73.07"/>
</g>
<!-- :emoji -->
<g id="node3" class="node">
<title>:emoji</title>
<ellipse fill="#ab47bc" stroke="black" cx="467.8" cy="-18" rx="33.6" ry="18"/>
<text text-anchor="middle" x="467.8" y="-14.3" font-family="Times,serif" font-size="14.00">:emoji</text>
</g>
<!-- :emoji&#45;ios&#45;&gt;:emoji -->
<g id="edge8" class="edge">
<title>:emoji&#45;ios&#45;&gt;:emoji</title>
<path fill="none" stroke="black" d="M85.09,-79.63C96.54,-76.99 109.14,-74.23 120.8,-72 229.89,-51.17 359.52,-33.14 425.16,-24.47"/>
<polygon fill="black" stroke="black" points="425.67,-27.94 435.13,-23.17 424.76,-21 425.67,-27.94"/>
</g>
<!-- :emoji&#45;&gt;:emoji -->
<g id="edge10" class="edge">
<title>:emoji&#45;&gt;:emoji</title>
<path fill="none" stroke="black" d="M492.04,-30.71C506.27,-33.42 519.59,-29.18 519.59,-18 519.59,-9.53 511.94,-5.04 502.04,-4.55"/>
<polygon fill="black" stroke="black" points="501.75,-1.06 492.04,-5.29 502.27,-8.04 501.75,-1.06"/>
</g>
<!-- :emoji&#45;google&#45;&gt;:emoji -->
<g id="edge11" class="edge">
<title>:emoji&#45;google&#45;&gt;:emoji</title>
<path fill="none" stroke="black" d="M234.46,-77.75C287.99,-64.28 376.86,-41.9 428.08,-29"/>
<polygon fill="black" stroke="black" points="428.96,-32.39 437.81,-26.55 427.25,-25.6 428.96,-32.39"/>
</g>
<!-- :emoji&#45;google&#45;&gt;:emoji&#45;google -->
<g id="edge12" class="edge">
<title>:emoji&#45;google&#45;&gt;:emoji&#45;google</title>
<path fill="none" stroke="black" d="M231.36,-103.2C251,-104.74 268.24,-100.34 268.24,-90 268.24,-81.52 256.64,-77.04 241.63,-76.55"/>
<polygon fill="black" stroke="black" points="241.27,-73.05 231.36,-76.8 241.45,-80.05 241.27,-73.05"/>
</g>
<!-- :emoji&#45;google&#45;compat&#45;&gt;:emoji -->
<g id="edge13" class="edge">
<title>:emoji&#45;google&#45;compat&#45;&gt;:emoji</title>
<path fill="none" stroke="black" d="M397.6,-72.41C410.62,-62.5 427.27,-49.84 441.08,-39.33"/>
<polygon fill="black" stroke="black" points="443.42,-41.95 449.25,-33.11 439.18,-36.38 443.42,-41.95"/>
</g>
<!-- :emoji&#45;google&#45;compat&#45;&gt;:emoji&#45;google&#45;compat -->
<g id="edge14" class="edge">
<title>:emoji&#45;google&#45;compat&#45;&gt;:emoji&#45;google&#45;compat</title>
<path fill="none" stroke="black" d="M436.14,-103.36C461.71,-104.37 483.49,-99.91 483.49,-90 483.49,-81.44 467.26,-76.95 446.37,-76.53"/>
<polygon fill="black" stroke="black" points="446.11,-73.03 436.14,-76.64 446.18,-80.03 446.11,-73.03"/>
</g>
<!-- :emoji&#45;twitter&#45;&gt;:emoji -->
<g id="edge15" class="edge">
<title>:emoji&#45;twitter&#45;&gt;:emoji</title>
<path fill="none" stroke="black" d="M539.69,-73.12C526.34,-63.07 508.96,-49.99 494.64,-39.2"/>
<polygon fill="black" stroke="black" points="496.7,-36.38 486.61,-33.16 492.49,-41.97 496.7,-36.38"/>
</g>
<!-- :emoji&#45;twitter&#45;&gt;:emoji&#45;twitter -->
<g id="edge16" class="edge">
<title>:emoji&#45;twitter&#45;&gt;:emoji&#45;twitter</title>
<path fill="none" stroke="black" d="M601.62,-103.17C621.26,-104.8 638.59,-100.41 638.59,-90 638.59,-81.46 626.93,-76.98 611.9,-76.54"/>
<polygon fill="black" stroke="black" points="611.52,-73.05 601.62,-76.83 611.72,-80.04 611.52,-73.05"/>
</g>
<!-- :emoji&#45;facebook&#45;&gt;:emoji -->
<g id="edge17" class="edge">
<title>:emoji&#45;facebook&#45;&gt;:emoji</title>
<path fill="none" stroke="black" d="M679.67,-76.49C630.52,-63.15 553.53,-42.26 507.14,-29.67"/>
<polygon fill="black" stroke="black" points="508.01,-26.29 497.45,-27.04 506.18,-33.04 508.01,-26.29"/>
</g>
<!-- :emoji&#45;facebook&#45;&gt;:emoji&#45;facebook -->
<g id="edge18" class="edge">
<title>:emoji&#45;facebook&#45;&gt;:emoji&#45;facebook</title>
<path fill="none" stroke="black" d="M772.73,-103.26C794.11,-104.62 812.69,-100.2 812.69,-90 812.69,-81.48 799.7,-76.99 782.95,-76.54"/>
<polygon fill="black" stroke="black" points="782.66,-73.04 772.73,-76.74 782.79,-80.04 782.66,-73.04"/>
</g>
<!-- :emoji&#45;material&#45;&gt;:emoji -->
<g id="edge19" class="edge">
<title>:emoji&#45;material&#45;&gt;:emoji</title>
<path fill="none" stroke="black" d="M848.89,-77.59C839.91,-75.6 830.59,-73.65 821.8,-72 710.2,-51.03 577.56,-32.99 510.77,-24.39"/>
<polygon fill="black" stroke="black" points="511,-20.89 500.63,-23.09 510.11,-27.83 511,-20.89"/>
</g>
<!-- :emoji&#45;material&#45;&gt;:emoji&#45;material -->
<g id="edge20" class="edge">
<title>:emoji&#45;material&#45;&gt;:emoji&#45;material</title>
<path fill="none" stroke="black" d="M941.54,-103.23C962.3,-104.68 980.44,-100.27 980.44,-90 980.44,-81.5 968,-77.01 951.94,-76.54"/>
<polygon fill="black" stroke="black" points="951.47,-73.05 941.54,-76.77 951.62,-80.05 951.47,-73.05"/>
</g>
<!-- :jvm -->
<g id="node9" class="node">
<title>:jvm</title>
<polygon fill="#ff7043" stroke="black" points="73.8,-180 19.8,-180 19.8,-144 73.8,-144 73.8,-180"/>
<text text-anchor="middle" x="46.8" y="-158.3" font-family="Times,serif" font-size="14.00">:jvm</text>
</g>
<!-- :jvm&#45;&gt;:emoji&#45;ios -->
<g id="edge21" class="edge">
<title>:jvm&#45;&gt;:emoji&#45;ios</title>
<path fill="none" stroke="black" stroke-dasharray="1,5" d="M46.8,-143.7C46.8,-135.98 46.8,-126.71 46.8,-118.11"/>
<polygon fill="black" stroke="black" points="50.3,-118.1 46.8,-108.1 43.3,-118.1 50.3,-118.1"/>
</g>
</g>
</svg>
